<svg width="210" height="68" viewBox="0 0 210 68" fill="none" xmlns="http://www.w3.org/2000/svg">
<g id="rbb24-logo" clip-path="url(#clip0_539_3141)">
<g id="primary">
<path d="M209.313 0H101.951L87.5088 68H209.313V0Z" fill="#E31818"/>
<path d="M0 13.2226H94.3194L85.4961 54.7773H0V13.2226Z" fill="#E31818"/>
</g>
<g id="secondary">
<path d="M115.862 53.3423H146.873V44.7637H127.053C127.922 42.4739 129.983 40.3454 137.583 36.814C144.86 33.4599 146.599 30.3961 146.599 25.3973C146.599 18.4796 141.656 14.6741 132.205 14.6741C126.431 14.6505 120.784 16.3761 116.007 19.6245L120.838 27.3969C124.117 24.9935 128.047 23.644 132.108 23.5268C135.151 23.5268 136.343 24.6072 136.343 26.1391C136.343 27.671 135.747 28.2676 131.722 30.0575C122.222 34.2984 116.184 40.4422 115.862 53.3423Z" fill="white"/>
<path fill-rule="evenodd" clip-rule="evenodd" d="M182.214 46.8277H187.045L186.996 37.846H182.166V15.2707H171.733L151.285 38.8296V46.5052H172.699V53.2778H182.214V46.8277ZM168.303 31.799C169.944 29.9182 171.466 27.9363 172.86 25.865V25.9295C172.763 27.7194 172.699 31.9925 172.699 34.1372V37.8299H169.881C167.273 37.8299 164.664 37.8782 162.765 37.9911C164.534 36.2402 166.2 34.3881 167.756 32.444L168.303 31.799Z" fill="white"/>
<path fill-rule="evenodd" clip-rule="evenodd" d="M78.0251 43.764C78.0251 43.764 78.8301 42.5868 78.8301 37.6364L78.8784 37.5558C78.8784 32.7666 78.0412 31.6862 78.0412 31.6862C78.0412 31.6862 74.1608 29.477 66.2392 29.477C64.3267 29.4891 62.4171 29.6291 60.5233 29.8963V22.3174H57.0777V44.8927C60.4489 45.3161 63.8403 45.5584 67.2374 45.6184C75.8031 45.6184 78.0251 43.764 78.0251 43.764ZM75.465 37.7976C75.4587 38.929 75.3942 40.0592 75.2718 41.1839C72.6921 41.8217 70.0385 42.1091 67.3823 42.0386C65.4019 42.0386 63.2122 41.8934 60.5716 41.6516V33.589C65.4528 32.7312 70.4655 33.007 75.2235 34.3952C75.3666 35.524 75.4472 36.6599 75.465 37.7976Z" fill="white"/>
<path fill-rule="evenodd" clip-rule="evenodd" d="M52.6499 43.6833C52.6499 43.6833 53.455 42.5062 53.455 37.5558C53.455 32.7666 52.6177 31.6862 52.6177 31.6862C52.6177 31.6862 48.7374 29.477 40.8157 29.477C38.9033 29.4892 36.9937 29.6293 35.0999 29.8963V22.3174H31.6543V44.8927C35.043 45.2909 38.4505 45.5062 41.8623 45.5377C50.428 45.5377 52.6499 43.6833 52.6499 43.6833ZM50.0416 37.7976C50.0377 38.929 49.9732 40.0594 49.8484 41.1839C47.2688 41.8222 44.6151 42.1097 41.9589 42.0386C39.9785 42.0386 37.7888 41.8934 35.1482 41.6516V33.589C40.0294 32.7312 45.0421 33.007 49.8001 34.3952C49.9447 35.5239 50.0253 36.6598 50.0416 37.7976Z" fill="white"/>
<path d="M12.8162 35.2176C17.6806 33.7567 22.7454 33.0764 27.8223 33.202V29.6222C14.5873 29.7028 9.32227 32.9278 9.32227 32.9278V45.3765H12.8162V35.2176Z" fill="white"/>
</g>
</g>
<defs>
<clipPath id="clip0_539_3141">
<rect width="209.312" height="68" fill="white"/>
</clipPath>
</defs>
</svg>
